<svg width="27px" height="19px" viewBox="0 0 27 19" version="1.1" xmlns="http://www.w3.org/2000/svg" xmlns:xlink="http://www.w3.org/1999/xlink">
    <!-- Generator: Sketch 49.3 (51167) - http://www.bohemiancoding.com/sketch -->
    <desc>Created with Sketch.</desc>
    <defs></defs>
    <g id="Page-1" stroke="none" stroke-width="1" fill="none" fill-rule="evenodd">
        <g id="News-Dashboard-Landing" fill="#000000">
            <g id="Navbar">
                <g id="Logo">
                    <path d="M0.531934789,0.000627973777 C0.229443563,0.0283784147 -0.00130447255,0.276222132 5.55015177e-06,0.571966835 L5.55015177e-06,3.42866114 C3.80416655e-05,3.74418978 0.262808341,3.99996837 0.586961951,4 L26.4130436,4 C26.7371972,3.99996837 26.9999675,3.74418978 27,3.42866114 L27,0.571966835 C26.9999675,0.256438196 26.7371972,0.000659600767 26.4130436,0.000627973777 L0.586961951,0.000627973777 C0.568629649,-0.000209324592 0.550267091,-0.000209324592 0.531934789,0.000627973777 Z M1,1 L26,1 L26,3 L1,3 L1,1 Z M5.55022877,5.00062797 C5.23733445,5.02837841 4.99865066,5.27622213 5.00000574,5.57196683 L5.00000574,8.42866114 C5.00003935,8.74418978 5.27184669,8.99996837 5.60714839,9 L21.3928573,9 C21.7281591,8.99996837 21.9999664,8.74418978 22,8.42866114 L22,5.57196683 C21.9999664,5.2564382 21.7281591,5.0006596 21.3928573,5.00062797 L5.60714839,5.00062797 C5.58818562,4.99979068 5.56919155,4.99979068 5.55022877,5.00062797 Z M6,6 L21,6 L21,8 L6,8 L6,6 Z M9.50977064,10.000628 C9.21988333,10.0283784 8.99874988,10.2762221 9.00000532,10.5719668 L9.00000532,13.4286611 C9.00003646,13.7441898 9.2518579,13.9999684 9.56250499,14 L17.4375003,14 C17.7481474,13.9999684 17.9999689,13.7441898 18,13.4286611 L18,10.5719668 C17.9999689,10.2564382 17.7481474,10.0006596 17.4375003,10.000628 L9.56250499,10.000628 C9.54493654,9.99979068 9.52733909,9.99979068 9.50977064,10.000628 Z M10,11 L17,11 L17,13 L10,13 L10,11 Z M11.5034769,15.000628 C11.2171686,15.0283784 10.9987653,15.2762221 11.0000053,15.5719668 L11.0000053,18.4286611 C11.000036,18.7441898 11.2487484,18.9999684 11.5555602,19 L15.444445,19 C15.7512568,18.9999684 15.9999692,18.7441898 16,18.4286611 L16,15.5719668 C15.9999692,15.2564382 15.7512568,15.0006596 15.444445,15.000628 L11.5555602,15.000628 C11.5382087,14.9997907 11.5208285,14.9997907 11.5034769,15.000628 Z M12,16 L15,16 L15,18 L12,18 L12,16 Z" id="Shape" fill-rule="nonzero"></path>
                </g>
            </g>
        </g>
    </g>
</svg>
